<svg width="24" height="25" viewBox="0 0 24 25" fill="none" xmlns="http://www.w3.org/2000/svg">
<path d="M17.3334 1.59766C12.3734 1.59766 8.26671 5.01099 7.09337 9.59766H2.00004L1.33337 12.2643H6.69337C6.69337 13.1977 6.88004 14.0777 7.12004 14.931H1.86671L1.36004 17.5977H8.18671C10.0534 20.771 13.44 22.931 17.36 22.931C19.3067 22.931 21.12 22.371 22.6934 21.4377V18.1843C21.28 19.4643 19.44 20.2643 17.36 20.2643C14.9867 20.2643 12.9067 19.2243 11.44 17.5977H17.36L17.7867 14.931H9.86671C9.57337 14.0777 9.36004 13.2243 9.36004 12.2643H18.2667L18.6934 9.59766H9.86671C10.96 6.50432 13.8934 4.26432 17.36 4.26432C19.12 4.26432 20.72 4.82432 22.0267 5.75766L22.4534 2.93099C20.9334 2.10432 19.2267 1.59766 17.36 1.59766H17.3334Z" fill="#663399"/>
<mask id="mask0_111_55690" style="mask-type:alpha" maskUnits="userSpaceOnUse" x="1" y="1" width="22" height="22">
<path d="M17.3334 1.59766C12.3734 1.59766 8.26671 5.01099 7.09337 9.59766H2.00004L1.33337 12.2643H6.69337C6.69337 13.1977 6.88004 14.0777 7.12004 14.931H1.86671L1.36004 17.5977H8.18671C10.0534 20.771 13.44 22.931 17.36 22.931C19.3067 22.931 21.12 22.371 22.6934 21.4377V18.1843C21.28 19.4643 19.44 20.2643 17.36 20.2643C14.9867 20.2643 12.9067 19.2243 11.44 17.5977H17.36L17.7867 14.931H9.86671C9.57337 14.0777 9.36004 13.2243 9.36004 12.2643H18.2667L18.6934 9.59766H9.86671C10.96 6.50432 13.8934 4.26432 17.36 4.26432C19.12 4.26432 20.72 4.82432 22.0267 5.75766L22.4534 2.93099C20.9334 2.10432 19.2267 1.59766 17.36 1.59766H17.3334Z" fill="white"/>
</mask>
<g mask="url(#mask0_111_55690)">
<rect y="0.264282" width="24" height="24" rx="4" fill="#663399"/>
</g>
</svg>
