<?xml version="1.0" encoding="UTF-8"?><!DOCTYPE svg PUBLIC "-//W3C//DTD SVG 1.1//EN" "http://www.w3.org/Graphics/SVG/1.1/DTD/svg11.dtd"><svg xmlns="http://www.w3.org/2000/svg" xmlns:xlink="http://www.w3.org/1999/xlink" class="hide-svg"><defs><path id="a" d="M14.5 6v5H2v2.5h12.5v5l7.5-6.325z"/><path d="M4 11c0 3.86 3.14 7 7 7 1.18 0 2.34-.28 3.32-.82a2 2 0 00.26.26l2 2a2.04 2.04 0 102.88-2.88l-2-2a2 2 0 00-.32-.26c.54-.98.88-2.12.88-3.32C18.02 7.12 14.86 4 11 4c-3.86 0-7 3.14-7 7zm12 0c0 1.32-.48 2.54-1.32 3.44l-.06.06a2 2 0 00-.26.26c-.88.8-2.08 1.26-3.38 1.26-2.78 0-5-2.22-5-5A5.01 5.01 0 0111 6c2.78 0 5 2.22 5 5z" id="a"/></defs><symbol id="arrow-right"><use xlink:href="#a" fill-rule="evenodd"/></symbol><symbol id="bullseye" viewBox="0 0 512 512"><path d="M256 72c101.689 0 184 82.295 184 184 0 101.689-82.295 184-184 184-101.689 0-184-82.295-184-184 0-101.689 82.295-184 184-184m0-64C119.033 8 8 119.033 8 256s111.033 248 248 248 248-111.033 248-248S392.967 8 256 8zm0 184c35.29 0 64 28.71 64 64s-28.71 64-64 64-64-28.71-64-64 28.71-64 64-64m0-64c-70.692 0-128 57.308-128 128s57.308 128 128 128 128-57.308 128-128-57.308-128-128-128z"/></symbol><symbol id="chart-pie" viewBox="0 0 576 512"><path d="M288 12.3V240h227.7c6.9 0 12.3-5.8 12-12.7-6.4-122.4-104.5-220.6-227-227-6.9-.3-12.7 5.1-12.7 12zM552.7 288c6.9 0 12.3 5.8 12 12.7-2.8 53.2-23.2 105.6-61.2 147.8-4.6 5.1-12.6 5.4-17.5.5L325 288h227.7zM401 433c4.8 4.8 4.7 12.8-.4 17.3-42.6 38.4-99 61.7-160.8 61.7C107.6 511.9-.2 403.8 0 271.5.2 143.4 100.8 38.9 227.3 32.3c6.9-.4 12.7 5.1 12.7 12V272l161 161z"/></symbol><symbol id="chevron-down" viewBox="0 0 448 512"><path d="M207 381.5L12.7 187.1c-9.4-9.4-9.4-24.6 0-33.9l22.7-22.7c9.4-9.4 24.5-9.4 33.9 0l154.7 154 154.7-154c9.4-9.3 24.5-9.3 33.9 0l22.7 22.7c9.4 9.4 9.4 24.6 0 33.9L241 381.5c-9.4 9.3-24.6 9.3-34 0z"/></symbol><symbol id="chevron-left" viewBox="0 0 320 512"><path d="M34.52 239.03L228.87 44.69c9.37-9.37 24.57-9.37 33.94 0l22.67 22.67c9.36 9.36 9.37 24.52.04 33.9L131.49 256l154.02 154.75c9.34 9.38 9.32 24.54-.04 33.9l-22.67 22.67c-9.37 9.37-24.57 9.37-33.94 0L34.52 272.97c-9.37-9.37-9.37-24.57 0-33.94z"/></symbol><symbol id="chevron-right" viewBox="0 0 320 512"><path d="M285.476 272.971L91.132 467.314c-9.373 9.373-24.569 9.373-33.941 0l-22.667-22.667c-9.357-9.357-9.375-24.522-.04-33.901L188.505 256 34.484 101.255c-9.335-9.379-9.317-24.544.04-33.901l22.667-22.667c9.373-9.373 24.569-9.373 33.941 0L285.475 239.03c9.373 9.372 9.373 24.568.001 33.941z"/></symbol><symbol id="chevron-up" viewBox="0 0 448 512"><path d="M241 130.5l194.3 194.3c9.4 9.4 9.4 24.6 0 33.9l-22.7 22.7c-9.4 9.4-24.5 9.4-33.9 0L224 227.5l-154.7 154c-9.4 9.3-24.5 9.3-33.9 0l-22.7-22.7c-9.4-9.4-9.4-24.6 0-33.9L207 130.5c9.4-9.3 24.6-9.3 34 0z"/></symbol><symbol id="cog" viewBox="0 0 512 512"><path d="M444.788 291.1l42.616 24.599c4.867 2.809 7.126 8.618 5.459 13.985-11.07 35.642-29.97 67.842-54.689 94.586a12.016 12.016 0 01-14.832 2.254l-42.584-24.595a191.577 191.577 0 01-60.759 35.13v49.182a12.01 12.01 0 01-9.377 11.718c-34.956 7.85-72.499 8.256-109.219.007-5.49-1.233-9.403-6.096-9.403-11.723v-49.184a191.555 191.555 0 01-60.759-35.13l-42.584 24.595a12.016 12.016 0 01-14.832-2.254c-24.718-26.744-43.619-58.944-54.689-94.586-1.667-5.366.592-11.175 5.459-13.985L67.212 291.1a193.48 193.48 0 010-70.199l-42.616-24.599c-4.867-2.809-7.126-8.618-5.459-13.985 11.07-35.642 29.97-67.842 54.689-94.586a12.016 12.016 0 0114.832-2.254l42.584 24.595a191.577 191.577 0 0160.759-35.13V25.759a12.01 12.01 0 019.377-11.718c34.956-7.85 72.499-8.256 109.219-.007 5.49 1.233 9.403 6.096 9.403 11.723v49.184a191.555 191.555 0 0160.759 35.13l42.584-24.595a12.016 12.016 0 0114.832 2.254c24.718 26.744 43.619 58.944 54.689 94.586 1.667 5.366-.592 11.175-5.459 13.985L444.788 220.9a193.485 193.485 0 010 70.2zM336 256c0-44.112-35.888-80-80-80s-80 35.888-80 80 35.888 80 80 80 80-35.888 80-80z"/></symbol><symbol id="magnifying-glass"><g fill-rule="evenodd"><mask id="b"><use xlink:href="#a"/></mask><use fill-rule="nonzero" xlink:href="#a"/><g mask="url(#b)"><rect width="24" height="24" rx="4"/></g></g></symbol><symbol id="map-marker-alt" viewBox="0 0 384 512"><path d="M172.268 501.67C26.97 291.031 0 269.413 0 192 0 85.961 85.961 0 192 0s192 85.961 192 192c0 77.413-26.97 99.031-172.268 309.67-9.535 13.774-29.93 13.773-39.464 0zM192 272c44.183 0 80-35.817 80-80s-35.817-80-80-80-80 35.817-80 80 35.817 80 80 80z"/></symbol><symbol id="suitcase" viewBox="0 0 512 512"><path d="M96 480h320V128h-32V80c0-26.51-21.49-48-48-48H176c-26.51 0-48 21.49-48 48v48H96v352zm96-384h128v32H192V96zm320 80v256c0 26.51-21.49 48-48 48h-16V128h16c26.51 0 48 21.49 48 48zM64 480H48c-26.51 0-48-21.49-48-48V176c0-26.51 21.49-48 48-48h16v352z"/></symbol></svg>