<?xml version="1.0" encoding="UTF-8"?><!DOCTYPE svg PUBLIC "-//W3C//DTD SVG 1.1//EN" "http://www.w3.org/Graphics/SVG/1.1/DTD/svg11.dtd"><svg xmlns="http://www.w3.org/2000/svg" xmlns:xlink="http://www.w3.org/1999/xlink" class="hide-svg"><symbol id="account-login" viewBox="0 0 24 24"><path d="M9.8 4v2.2h9v11.2h-9v2.2H21V4H9.8zM12 8.5v2.2H3V13h9v2.2l4.5-3.4L12 8.5z"/><path d="M9.8 4v2.2h9v11.2h-9v2.2H21V4H9.8zM12 8.5v2.2H3V13h9v2.2l4.5-3.4L12 8.5z"/></symbol><symbol id="briefcase" viewBox="0 0 24 24"><path d="M9.8 3C8.5 3 7.5 4 7.5 5.2v2.2H3.2c-.1.1-.2.2-.2.3v5.4c0 .6.5 1.1 1.1 1.1h15.7c.6 0 1.1-.5 1.1-1.1V7.7c0-.1-.1-.2-.2-.2h-4.3V5.2c0-1.2-1-2.2-2.2-2.2H9.8zm0 2.2h4.5v2.2H9.8V5.2zM3 16.3v4.5c0 .1.1.2.2.2h17.6c.1 0 .2-.1.2-.2v-4.5c-.4.1-.7.2-1.1.2H4.1c-.4 0-.7-.1-1.1-.2z"/><path d="M9.8 3C8.5 3 7.5 4 7.5 5.2v2.2H3.2c-.1.1-.2.2-.2.3v5.4c0 .6.5 1.1 1.1 1.1h15.7c.6 0 1.1-.5 1.1-1.1V7.7c0-.1-.1-.2-.2-.2h-4.3V5.2c0-1.2-1-2.2-2.2-2.2H9.8zm0 2.2h4.5v2.2H9.8V5.2zM3 16.3v4.5c0 .1.1.2.2.2h17.6c.1 0 .2-.1.2-.2v-4.5c-.4.1-.7.2-1.1.2H4.1c-.4 0-.7-.1-1.1-.2z"/></symbol><symbol id="calendar" viewBox="0 0 24 24"><path d="M21 5.2h-2.3v2.3h-3.4V5.2H8.6v2.3H5.3V5.2H3V21h18V5.2zm-2.2 13.6H5.3v-7.9h13.5v7.9zM7.5 3H6.4v3.4h1.1V3zm10.1 0h-1.1v3.4h1.1V3z"/></symbol><symbol id="info" viewBox="0 0 24 24"><path d="M12 3c5 0 9 4 9 9s-4 9-9 9-9-4-9-9 4-9 9-9zm1.1 11.2h-2.2v2.2h2.2v-2.2zm0-6.7h-2.2V12h2.2V7.5z"/></symbol><symbol id="linkedin" viewBox="0 0 24 24"><path d="M7.1 8.6v11.6H3.2V8.6h3.9zm9.5-.3c2.5 0 4.4 1.7 4.4 5.2v6.6h-3.9V14c0-1.6-.6-2.6-2-2.6-1.1 0-1.7.7-2 1.4-.1.2-.1.6-.1.9v6.5H9.2s.1-10.5 0-11.6h3.9v1.6c.5-.8 1.4-1.9 3.5-1.9zM5.2 3c1.3 0 2.1.9 2.2 2 0 1.1-.8 2-2.2 2C3.8 7 3 6.1 3 5s.9-2 2.2-2z"/><path d="M7.1 8.6v11.6H3.2V8.6h3.9zm9.5-.3c2.5 0 4.4 1.7 4.4 5.2v6.6h-3.9V14c0-1.6-.6-2.6-2-2.6-1.1 0-1.7.7-2 1.4-.1.2-.1.6-.1.9v6.5H9.2s.1-10.5 0-11.6h3.9v1.6c.5-.8 1.4-1.9 3.5-1.9zM5.2 3c1.3 0 2.1.9 2.2 2 0 1.1-.8 2-2.2 2C3.8 7 3 6.1 3 5s.9-2 2.2-2z"/></symbol><symbol id="map-marker" viewBox="0 0 24 24"><path d="M11.8 3C8 3 5 6 5 9.8 5 14.2 11.8 21 11.8 21s6.8-6.8 6.8-11.2C18.5 6 15.5 3 11.8 3zm0 2.2c2.5 0 4.5 2 4.5 4.5s-2 4.5-4.5 4.5-4.5-2-4.5-4.5c-.1-2.4 2-4.5 4.5-4.5z"/><path d="M11.8 3C8 3 5 6 5 9.8 5 14.2 11.8 21 11.8 21s6.8-6.8 6.8-11.2C18.5 6 15.5 3 11.8 3zm0 2.2c2.5 0 4.5 2 4.5 4.5s-2 4.5-4.5 4.5-4.5-2-4.5-4.5c-.1-2.4 2-4.5 4.5-4.5z"/></symbol><symbol id="person" viewBox="0 0 24 24"><path d="M12 3C9.5 3 7.5 5.5 7.5 8.6s2 5.6 4.5 5.6 4.5-2.5 4.5-5.6S14.5 3 12 3zM7.3 14.2c-2.4.2-4.3 2.1-4.3 4.6V21h18v-2.2c0-2.4-1.9-4.4-4.3-4.5-1.2 1.4-2.9 2.2-4.7 2.2s-3.5-.9-4.7-2.3z"/><path d="M12 3C9.5 3 7.5 5.5 7.5 8.6s2 5.6 4.5 5.6 4.5-2.5 4.5-5.6S14.5 3 12 3zM7.3 14.2c-2.4.2-4.3 2.1-4.3 4.6V21h18v-2.2c0-2.4-1.9-4.4-4.3-4.5-1.2 1.4-2.9 2.2-4.7 2.2s-3.5-.9-4.7-2.3z"/></symbol><symbol id="twitter" viewBox="0 0 24 24"><path d="M11.7 9v.6l-.7-.1c-2.4-.3-4.4-1.3-6.2-3l-.7-.9-.2.7c-.5 1.4-.2 2.9.8 3.9.5.6.4.6-.5.3-.3-.1-.6-.2-.6-.1-.1.1.2 1.3.5 1.8.3.7 1 1.3 1.8 1.7l.5.1h-.8c-.7 0-.8 0-.7.3.3.9 1.3 1.8 2.4 2.2l.8.3-.7.4c-1 .6-2.3.9-3.5 1-.6 0-1.1.1-1.1.1 0 .1 1.6.9 2.5 1.2 2.8.9 6.1.5 8.5-1 1.8-1 3.5-3.1 4.3-5.1.4-1.1.9-3 .9-3.9 0-.6 0-.7.8-1.4.4-.4.8-.9.9-1 .1-.2.1-.2-.5 0-1.1.4-1.3.3-.7-.2.4-.4.9-1.2.9-1.4 0 0-.2 0-.4.1s-.8.3-1.1.4l-.7.2-.6-.4c-.4-.2-.8-.5-1.1-.6-.7-.2-1.7-.2-2.3.1-1.5.5-2.6 2-2.5 3.7z"/><path d="M11.7 9v.6l-.7-.1c-2.4-.3-4.4-1.3-6.2-3l-.7-.9-.2.7c-.5 1.4-.2 2.9.8 3.9.5.6.4.6-.5.3-.3-.1-.6-.2-.6-.1-.1.1.2 1.3.5 1.8.3.7 1 1.3 1.8 1.7l.5.1h-.8c-.7 0-.8 0-.7.3.3.9 1.3 1.8 2.4 2.2l.8.3-.7.4c-1 .6-2.3.9-3.5 1-.6 0-1.1.1-1.1.1 0 .1 1.6.9 2.5 1.2 2.8.9 6.1.5 8.5-1 1.8-1 3.5-3.1 4.3-5.1.4-1.1.9-3 .9-3.9 0-.6 0-.7.8-1.4.4-.4.8-.9.9-1 .1-.2.1-.2-.5 0-1.1.4-1.3.3-.7-.2.4-.4.9-1.2.9-1.4 0 0-.2 0-.4.1s-.8.3-1.1.4l-.7.2-.6-.4c-.4-.2-.8-.5-1.1-.6-.7-.2-1.7-.2-2.3.1-1.5.5-2.6 2-2.5 3.7z"/></symbol></svg>